  0
SECTION
  2
HEADER
  9
$ACADVER
  1
AC1006
  9
$DWGCODEPAGE
  3
ansi_1252
  9
$INSBASE
 10
0.0
 20
0.0
 30
0.0
  9
$EXTMIN
 10
-137.1397
 20
-37.6172
  9
$EXTMAX
 10
-19.9435
 20
94.8566
  9
$LIMMIN
 10
0.0
 20
0.0
  9
$LIMMAX
 10
12.0
 20
9.0
  9
$ORTHOMODE
 70
     0
  9
$REGENMODE
 70
     1
  9
$FILLMODE
 70
     1
  9
$QTEXTMODE
 70
     0
  9
$MIRRTEXT
 70
     1
  9
$DRAGMODE
 70
     2
  9
$LTSCALE
 40
1.0
  9
$OSMODE
 70
    37
  9
$ATTMODE
 70
     1
  9
$TEXTSIZE
 40
0.2
  9
$TRACEWID
 40
0.05
  9
$TEXTSTYLE
  7
STANDARD
  9
$CLAYER
  8
0
  9
$CELTYPE
  6
BYLAYER
  9
$CECOLOR
 62
   256
  9
$DIMSCALE
 40
1.0
  9
$DIMASZ
 40
0.18
  9
$DIMEXO
 40
0.0625
  9
$DIMDLI
 40
0.38
  9
$DIMRND
 40
0.0
  9
$DIMDLE
 40
0.0
  9
$DIMEXE
 40
0.18
  9
$DIMTP
 40
0.0
  9
$DIMTM
 40
0.0
  9
$DIMTXT
 40
0.18
  9
$DIMCEN
 40
0.09
  9
$DIMTSZ
 40
0.0
  9
$DIMTOL
 70
     0
  9
$DIMLIM
 70
     0
  9
$DIMTIH
 70
     1
  9
$DIMTOH
 70
     1
  9
$DIMSE1
 70
     0
  9
$DIMSE2
 70
     0
  9
$DIMTAD
 70
     0
  9
$DIMZIN
 70
     0
  9
$DIMBLK
  1

  9
$DIMASO
 70
     1
  9
$DIMSHO
 70
     1
  9
$DIMPOST
  1

  9
$DIMAPOST
  1

  9
$DIMALT
 70
     0
  9
$DIMALTD
 70
     2
  9
$DIMALTF
 40
25.4
  9
$DIMLFAC
 40
1.0
  9
$DIMTOFL
 70
     0
  9
$DIMTVP
 40
0.0
  9
$DIMTIX
 70
     0
  9
$DIMSOXD
 70
     0
  9
$DIMSAH
 70
     0
  9
$DIMBLK1
  1

  9
$DIMBLK2
  1

  9
$LUNITS
 70
     2
  9
$LUPREC
 70
     4
  9
$SKETCHINC
 40
0.1
  9
$FILLETRAD
 40
0.5
  9
$AUNITS
 70
     0
  9
$AUPREC
 70
     0
  9
$MENU
  1
.
  9
$ELEVATION
 40
0.0
  9
$THICKNESS
 40
0.0
  9
$LIMCHECK
 70
     0
  9
$CHAMFERA
 40
0.0
  9
$CHAMFERB
 40
0.0
  9
$SKPOLY
 70
     0
  9
$TDCREATE
 40
2457933.880646945
  9
$TDUPDATE
 40
2457933.880646968
  9
$TDINDWG
 40
0.0000000116
  9
$TDUSRTIMER
 40
0.0000000116
  9
$USRTIMER
 70
     1
  9
$ANGBASE
 50
0.0
  9
$ANGDIR
 70
     0
  9
$PDMODE
 70
     0
  9
$PDSIZE
 40
0.0
  9
$PLINEWID
 40
0.0
  9
$COORDS
 70
     1
  9
$SPLFRAME
 70
     0
  9
$SPLINETYPE
 70
     6
  9
$SPLINESEGS
 70
     8
  9
$ATTDIA
 70
     0
  9
$ATTREQ
 70
     1
  9
$HANDLING
 70
     1
  9
$HANDSEED
  5
151
  9
$SURFTAB1
 70
     6
  9
$SURFTAB2
 70
     6
  9
$SURFTYPE
 70
     6
  9
$SURFU
 70
     6
  9
$SURFV
 70
     6
  9
$UCSNAME
  2

  9
$UCSORG
 10
0.0
 20
0.0
 30
0.0
  9
$UCSXDIR
 10
1.0
 20
0.0
 30
0.0
  9
$UCSYDIR
 10
0.0
 20
1.0
 30
0.0
  9
$USERI1
 70
     0
  9
$USERI2
 70
     0
  9
$USERI3
 70
     0
  9
$USERI4
 70
     0
  9
$USERI5
 70
     0
  9
$USERR1
 40
0.0
  9
$USERR2
 40
0.0
  9
$USERR3
 40
0.0
  9
$USERR4
 40
0.0
  9
$USERR5
 40
0.0
  9
$WORLDVIEW
 70
     1
  0
ENDSEC
  0
SECTION
  2
TABLES
  0
TABLE
  2
VPORT
 70
     1
  0
VPORT
  2
*ACTIVE
 70
     0
 10
0.0
 20
0.0
 11
1.0
 21
1.0
 12
10.42990654205607
 22
4.5
 13
0.0
 23
0.0
 14
0.5
 24
0.5
 15
0.5
 25
0.5
 16
0.0
 26
0.0
 36
1.0
 17
0.0
 27
0.0
 37
0.0
 40
9.0
 41
1.972972972850329
 42
50.0
 43
0.0
 44
0.0
 50
0.0
 51
0.0
 71
     0
 72
   100
 73
     1
 74
     3
 75
     0
 76
     0
 77
     0
 78
     0
  0
ENDTAB
  0
TABLE
  2
LTYPE
 70
     1
  0
LTYPE
  2
CONTINUOUS
 70
     0
  3
Solid line
 72
    65
 73
     0
 40
0.0
  0
ENDTAB
  0
TABLE
  2
LAYER
 70
     2
  0
LAYER
  2
0
 70
     0
 62
     7
  6
CONTINUOUS
  0
LAYER
  2
LAYER_1
 70
     0
 62
     7
  6
CONTINUOUS
  0
ENDTAB
  0
TABLE
  2
STYLE
 70
     1
  0
STYLE
  2
STANDARD
 70
     0
 40
0.0
 41
1.0
 50
0.0
 71
     0
 42
0.2
  3
txt
  4

  0
ENDTAB
  0
TABLE
  2
VIEW
 70
     0
  0
ENDTAB
  0
TABLE
  2
UCS
 70
     0
  0
ENDTAB
  0
ENDSEC
  0
SECTION
  2
BLOCKS
  0
ENDSEC
  0
SECTION
  2
ENTITIES
  0
POLYLINE
  5
70
  8
LAYER_1
 62
     1
 66
     1
 10
0.0
 20
0.0
 30
0.0
 70
     1
  0
VERTEX
  5
8F
  8
LAYER_1
 62
     1
 10
-131.0416
 20
4.8297
 30
0.0
  0
VERTEX
  5
90
  8
LAYER_1
 62
     1
 10
-137.1016
 20
-1.2303
 30
0.0
  0
VERTEX
  5
91
  8
LAYER_1
 62
     1
 10
-137.1016
 20
-31.5303
 30
0.0
  0
VERTEX
  5
92
  8
LAYER_1
 62
     1
 10
-131.0416
 20
-37.5903
 30
0.0
  0
VERTEX
  5
93
  8
LAYER_1
 62
     1
 10
-124.9816
 20
-31.5303
 30
0.0
  0
VERTEX
  5
94
  8
LAYER_1
 62
     1
 10
-124.9816
 20
-1.2303
 30
0.0
  0
VERTEX
  5
95
  8
LAYER_1
 62
     1
 10
-131.0416
 20
4.8297
 30
0.0
  0
SEQEND
  5
139
  8
LAYER_1
 62
     1
  0
POLYLINE
  5
71
  8
LAYER_1
 62
     1
 66
     1
 10
0.0
 20
0.0
 30
0.0
 70
     1
  0
VERTEX
  5
96
  8
LAYER_1
 62
     1
 10
-116.0416
 20
4.8297
 30
0.0
  0
VERTEX
  5
97
  8
LAYER_1
 62
     1
 10
-122.1016
 20
-1.2303
 30
0.0
  0
VERTEX
  5
98
  8
LAYER_1
 62
     1
 10
-122.1016
 20
-31.5303
 30
0.0
  0
VERTEX
  5
99
  8
LAYER_1
 62
     1
 10
-116.0416
 20
-37.5903
 30
0.0
  0
VERTEX
  5
9A
  8
LAYER_1
 62
     1
 10
-109.9816
 20
-31.5303
 30
0.0
  0
VERTEX
  5
9B
  8
LAYER_1
 62
     1
 10
-109.9816
 20
-1.2303
 30
0.0
  0
VERTEX
  5
9C
  8
LAYER_1
 62
     1
 10
-116.0416
 20
4.8297
 30
0.0
  0
SEQEND
  5
13A
  8
LAYER_1
 62
     1
  0
POLYLINE
  5
72
  8
LAYER_1
 62
     1
 66
     1
 10
0.0
 20
0.0
 30
0.0
 70
     1
  0
VERTEX
  5
9D
  8
LAYER_1
 62
     1
 10
-101.0416
 20
4.8297
 30
0.0
  0
VERTEX
  5
9E
  8
LAYER_1
 62
     1
 10
-107.1016
 20
-1.2303
 30
0.0
  0
VERTEX
  5
9F
  8
LAYER_1
 62
     1
 10
-107.1016
 20
-31.5303
 30
0.0
  0
VERTEX
  5
A0
  8
LAYER_1
 62
     1
 10
-101.0416
 20
-37.5903
 30
0.0
  0
VERTEX
  5
A1
  8
LAYER_1
 62
     1
 10
-94.9816
 20
-31.5303
 30
0.0
  0
VERTEX
  5
A2
  8
LAYER_1
 62
     1
 10
-94.9816
 20
-1.2303
 30
0.0
  0
VERTEX
  5
A3
  8
LAYER_1
 62
     1
 10
-101.0416
 20
4.8297
 30
0.0
  0
SEQEND
  5
13B
  8
LAYER_1
 62
     1
  0
POLYLINE
  5
73
  8
LAYER_1
 62
     1
 66
     1
 10
0.0
 20
0.0
 30
0.0
 70
     1
  0
VERTEX
  5
A4
  8
LAYER_1
 62
     1
 10
-86.0416
 20
4.8297
 30
0.0
  0
VERTEX
  5
A5
  8
LAYER_1
 62
     1
 10
-92.1016
 20
-1.2303
 30
0.0
  0
VERTEX
  5
A6
  8
LAYER_1
 62
     1
 10
-92.1016
 20
-31.5303
 30
0.0
  0
VERTEX
  5
A7
  8
LAYER_1
 62
     1
 10
-86.0416
 20
-37.5903
 30
0.0
  0
VERTEX
  5
A8
  8
LAYER_1
 62
     1
 10
-79.9816
 20
-31.5303
 30
0.0
  0
VERTEX
  5
A9
  8
LAYER_1
 62
     1
 10
-79.9816
 20
-1.2303
 30
0.0
  0
VERTEX
  5
AA
  8
LAYER_1
 62
     1
 10
-86.0416
 20
4.8297
 30
0.0
  0
SEQEND
  5
13C
  8
LAYER_1
 62
     1
  0
POLYLINE
  5
74
  8
LAYER_1
 62
     1
 66
     1
 10
0.0
 20
0.0
 30
0.0
 70
     1
  0
VERTEX
  5
AB
  8
LAYER_1
 62
     1
 10
-71.0416
 20
4.8297
 30
0.0
  0
VERTEX
  5
AC
  8
LAYER_1
 62
     1
 10
-77.1016
 20
-1.2303
 30
0.0
  0
VERTEX
  5
AD
  8
LAYER_1
 62
     1
 10
-77.1016
 20
-31.5303
 30
0.0
  0
VERTEX
  5
AE
  8
LAYER_1
 62
     1
 10
-71.0416
 20
-37.5903
 30
0.0
  0
VERTEX
  5
AF
  8
LAYER_1
 62
     1
 10
-64.9816
 20
-31.5303
 30
0.0
  0
VERTEX
  5
B0
  8
LAYER_1
 62
     1
 10
-64.9816
 20
-1.2303
 30
0.0
  0
VERTEX
  5
B1
  8
LAYER_1
 62
     1
 10
-71.0416
 20
4.8297
 30
0.0
  0
SEQEND
  5
13D
  8
LAYER_1
 62
     1
  0
POLYLINE
  5
75
  8
LAYER_1
 62
     1
 66
     1
 10
0.0
 20
0.0
 30
0.0
 70
     1
  0
VERTEX
  5
B2
  8
LAYER_1
 62
     1
 10
-56.0416
 20
4.8297
 30
0.0
  0
VERTEX
  5
B3
  8
LAYER_1
 62
     1
 10
-62.1016
 20
-1.2303
 30
0.0
  0
VERTEX
  5
B4
  8
LAYER_1
 62
     1
 10
-62.1016
 20
-31.5303
 30
0.0
  0
VERTEX
  5
B5
  8
LAYER_1
 62
     1
 10
-56.0416
 20
-37.5903
 30
0.0
  0
VERTEX
  5
B6
  8
LAYER_1
 62
     1
 10
-49.9816
 20
-31.5303
 30
0.0
  0
VERTEX
  5
B7
  8
LAYER_1
 62
     1
 10
-49.9816
 20
-1.2303
 30
0.0
  0
VERTEX
  5
B8
  8
LAYER_1
 62
     1
 10
-56.0416
 20
4.8297
 30
0.0
  0
SEQEND
  5
13E
  8
LAYER_1
 62
     1
  0
POLYLINE
  5
76
  8
LAYER_1
 62
     1
 66
     1
 10
0.0
 20
0.0
 30
0.0
 70
     1
  0
VERTEX
  5
B9
  8
LAYER_1
 62
     1
 10
-41.0416
 20
4.8297
 30
0.0
  0
VERTEX
  5
BA
  8
LAYER_1
 62
     1
 10
-47.1016
 20
-1.2303
 30
0.0
  0
VERTEX
  5
BB
  8
LAYER_1
 62
     1
 10
-47.1016
 20
-31.5303
 30
0.0
  0
VERTEX
  5
BC
  8
LAYER_1
 62
     1
 10
-41.0416
 20
-37.5903
 30
0.0
  0
VERTEX
  5
BD
  8
LAYER_1
 62
     1
 10
-34.9816
 20
-31.5303
 30
0.0
  0
VERTEX
  5
BE
  8
LAYER_1
 62
     1
 10
-34.9816
 20
-1.2303
 30
0.0
  0
VERTEX
  5
BF
  8
LAYER_1
 62
     1
 10
-41.0416
 20
4.8297
 30
0.0
  0
SEQEND
  5
13F
  8
LAYER_1
 62
     1
  0
POLYLINE
  5
77
  8
LAYER_1
 62
     1
 66
     1
 10
0.0
 20
0.0
 30
0.0
 70
     1
  0
VERTEX
  5
C0
  8
LAYER_1
 62
     1
 10
-26.0416
 20
4.8297
 30
0.0
  0
VERTEX
  5
C1
  8
LAYER_1
 62
     1
 10
-32.1016
 20
-1.2303
 30
0.0
  0
VERTEX
  5
C2
  8
LAYER_1
 62
     1
 10
-32.1016
 20
-31.5303
 30
0.0
  0
VERTEX
  5
C3
  8
LAYER_1
 62
     1
 10
-26.0416
 20
-37.5903
 30
0.0
  0
VERTEX
  5
C4
  8
LAYER_1
 62
     1
 10
-19.9816
 20
-31.5303
 30
0.0
  0
VERTEX
  5
C5
  8
LAYER_1
 62
     1
 10
-19.9816
 20
-1.2303
 30
0.0
  0
VERTEX
  5
C6
  8
LAYER_1
 62
     1
 10
-26.0416
 20
4.8297
 30
0.0
  0
SEQEND
  5
140
  8
LAYER_1
 62
     1
  0
POLYLINE
  5
78
  8
LAYER_1
 62
     1
 66
     1
 10
0.0
 20
0.0
 30
0.0
 70
     1
  0
VERTEX
  5
C7
  8
LAYER_1
 62
     1
 10
-131.0416
 20
49.8297
 30
0.0
  0
VERTEX
  5
C8
  8
LAYER_1
 62
     1
 10
-137.1016
 20
43.7697
 30
0.0
  0
VERTEX
  5
C9
  8
LAYER_1
 62
     1
 10
-137.1016
 20
13.4697
 30
0.0
  0
VERTEX
  5
CA
  8
LAYER_1
 62
     1
 10
-131.0416
 20
7.4097
 30
0.0
  0
VERTEX
  5
CB
  8
LAYER_1
 62
     1
 10
-124.9816
 20
13.4697
 30
0.0
  0
VERTEX
  5
CC
  8
LAYER_1
 62
     1
 10
-124.9816
 20
43.7697
 30
0.0
  0
VERTEX
  5
CD
  8
LAYER_1
 62
     1
 10
-131.0416
 20
49.8297
 30
0.0
  0
SEQEND
  5
141
  8
LAYER_1
 62
     1
  0
POLYLINE
  5
79
  8
LAYER_1
 62
     1
 66
     1
 10
0.0
 20
0.0
 30
0.0
 70
     1
  0
VERTEX
  5
CE
  8
LAYER_1
 62
     1
 10
-116.0416
 20
49.8297
 30
0.0
  0
VERTEX
  5
CF
  8
LAYER_1
 62
     1
 10
-122.1016
 20
43.7697
 30
0.0
  0
VERTEX
  5
D0
  8
LAYER_1
 62
     1
 10
-122.1016
 20
13.4697
 30
0.0
  0
VERTEX
  5
D1
  8
LAYER_1
 62
     1
 10
-116.0416
 20
7.4097
 30
0.0
  0
VERTEX
  5
D2
  8
LAYER_1
 62
     1
 10
-109.9816
 20
13.4697
 30
0.0
  0
VERTEX
  5
D3
  8
LAYER_1
 62
     1
 10
-109.9816
 20
43.7697
 30
0.0
  0
VERTEX
  5
D4
  8
LAYER_1
 62
     1
 10
-116.0416
 20
49.8297
 30
0.0
  0
SEQEND
  5
142
  8
LAYER_1
 62
     1
  0
POLYLINE
  5
7A
  8
LAYER_1
 62
     1
 66
     1
 10
0.0
 20
0.0
 30
0.0
 70
     1
  0
VERTEX
  5
D5
  8
LAYER_1
 62
     1
 10
-101.0416
 20
49.8297
 30
0.0
  0
VERTEX
  5
D6
  8
LAYER_1
 62
     1
 10
-107.1016
 20
43.7697
 30
0.0
  0
VERTEX
  5
D7
  8
LAYER_1
 62
     1
 10
-107.1016
 20
13.4697
 30
0.0
  0
VERTEX
  5
D8
  8
LAYER_1
 62
     1
 10
-101.0416
 20
7.4097
 30
0.0
  0
VERTEX
  5
D9
  8
LAYER_1
 62
     1
 10
-94.9816
 20
13.4697
 30
0.0
  0
VERTEX
  5
DA
  8
LAYER_1
 62
     1
 10
-94.9816
 20
43.7697
 30
0.0
  0
VERTEX
  5
DB
  8
LAYER_1
 62
     1
 10
-101.0416
 20
49.8297
 30
0.0
  0
SEQEND
  5
143
  8
LAYER_1
 62
     1
  0
POLYLINE
  5
7B
  8
LAYER_1
 62
     1
 66
     1
 10
0.0
 20
0.0
 30
0.0
 70
     1
  0
VERTEX
  5
DC
  8
LAYER_1
 62
     1
 10
-86.0416
 20
49.8297
 30
0.0
  0
VERTEX
  5
DD
  8
LAYER_1
 62
     1
 10
-92.1016
 20
43.7697
 30
0.0
  0
VERTEX
  5
DE
  8
LAYER_1
 62
     1
 10
-92.1016
 20
13.4697
 30
0.0
  0
VERTEX
  5
DF
  8
LAYER_1
 62
     1
 10
-86.0416
 20
7.4097
 30
0.0
  0
VERTEX
  5
E0
  8
LAYER_1
 62
     1
 10
-79.9816
 20
13.4697
 30
0.0
  0
VERTEX
  5
E1
  8
LAYER_1
 62
     1
 10
-79.9816
 20
43.7697
 30
0.0
  0
VERTEX
  5
E2
  8
LAYER_1
 62
     1
 10
-86.0416
 20
49.8297
 30
0.0
  0
SEQEND
  5
144
  8
LAYER_1
 62
     1
  0
POLYLINE
  5
7C
  8
LAYER_1
 62
     1
 66
     1
 10
0.0
 20
0.0
 30
0.0
 70
     1
  0
VERTEX
  5
E3
  8
LAYER_1
 62
     1
 10
-71.0416
 20
49.8297
 30
0.0
  0
VERTEX
  5
E4
  8
LAYER_1
 62
     1
 10
-77.1016
 20
43.7697
 30
0.0
  0
VERTEX
  5
E5
  8
LAYER_1
 62
     1
 10
-77.1016
 20
13.4697
 30
0.0
  0
VERTEX
  5
E6
  8
LAYER_1
 62
     1
 10
-71.0416
 20
7.4097
 30
0.0
  0
VERTEX
  5
E7
  8
LAYER_1
 62
     1
 10
-64.9816
 20
13.4697
 30
0.0
  0
VERTEX
  5
E8
  8
LAYER_1
 62
     1
 10
-64.9816
 20
43.7697
 30
0.0
  0
VERTEX
  5
E9
  8
LAYER_1
 62
     1
 10
-71.0416
 20
49.8297
 30
0.0
  0
SEQEND
  5
145
  8
LAYER_1
 62
     1
  0
POLYLINE
  5
7D
  8
LAYER_1
 62
     1
 66
     1
 10
0.0
 20
0.0
 30
0.0
 70
     1
  0
VERTEX
  5
EA
  8
LAYER_1
 62
     1
 10
-56.0416
 20
49.8297
 30
0.0
  0
VERTEX
  5
EB
  8
LAYER_1
 62
     1
 10
-62.1016
 20
43.7697
 30
0.0
  0
VERTEX
  5
EC
  8
LAYER_1
 62
     1
 10
-62.1016
 20
13.4697
 30
0.0
  0
VERTEX
  5
ED
  8
LAYER_1
 62
     1
 10
-56.0416
 20
7.4097
 30
0.0
  0
VERTEX
  5
EE
  8
LAYER_1
 62
     1
 10
-49.9816
 20
13.4697
 30
0.0
  0
VERTEX
  5
EF
  8
LAYER_1
 62
     1
 10
-49.9816
 20
43.7697
 30
0.0
  0
VERTEX
  5
F0
  8
LAYER_1
 62
     1
 10
-56.0416
 20
49.8297
 30
0.0
  0
SEQEND
  5
146
  8
LAYER_1
 62
     1
  0
POLYLINE
  5
7E
  8
LAYER_1
 62
     1
 66
     1
 10
0.0
 20
0.0
 30
0.0
 70
     1
  0
VERTEX
  5
F1
  8
LAYER_1
 62
     1
 10
-41.0416
 20
49.8297
 30
0.0
  0
VERTEX
  5
F2
  8
LAYER_1
 62
     1
 10
-47.1016
 20
43.7697
 30
0.0
  0
VERTEX
  5
F3
  8
LAYER_1
 62
     1
 10
-47.1016
 20
13.4697
 30
0.0
  0
VERTEX
  5
F4
  8
LAYER_1
 62
     1
 10
-41.0416
 20
7.4097
 30
0.0
  0
VERTEX
  5
F5
  8
LAYER_1
 62
     1
 10
-34.9816
 20
13.4697
 30
0.0
  0
VERTEX
  5
F6
  8
LAYER_1
 62
     1
 10
-34.9816
 20
43.7697
 30
0.0
  0
VERTEX
  5
F7
  8
LAYER_1
 62
     1
 10
-41.0416
 20
49.8297
 30
0.0
  0
SEQEND
  5
147
  8
LAYER_1
 62
     1
  0
POLYLINE
  5
7F
  8
LAYER_1
 62
     1
 66
     1
 10
0.0
 20
0.0
 30
0.0
 70
     1
  0
VERTEX
  5
F8
  8
LAYER_1
 62
     1
 10
-26.0416
 20
49.8297
 30
0.0
  0
VERTEX
  5
F9
  8
LAYER_1
 62
     1
 10
-32.1016
 20
43.7697
 30
0.0
  0
VERTEX
  5
FA
  8
LAYER_1
 62
     1
 10
-32.1016
 20
13.4697
 30
0.0
  0
VERTEX
  5
FB
  8
LAYER_1
 62
     1
 10
-26.0416
 20
7.4097
 30
0.0
  0
VERTEX
  5
FC
  8
LAYER_1
 62
     1
 10
-19.9816
 20
13.4697
 30
0.0
  0
VERTEX
  5
FD
  8
LAYER_1
 62
     1
 10
-19.9816
 20
43.7697
 30
0.0
  0
VERTEX
  5
FE
  8
LAYER_1
 62
     1
 10
-26.0416
 20
49.8297
 30
0.0
  0
SEQEND
  5
148
  8
LAYER_1
 62
     1
  0
POLYLINE
  5
80
  8
LAYER_1
 62
     1
 66
     1
 10
0.0
 20
0.0
 30
0.0
 70
     1
  0
VERTEX
  5
FF
  8
LAYER_1
 62
     1
 10
-131.0416
 20
94.8297
 30
0.0
  0
VERTEX
  5
100
  8
LAYER_1
 62
     1
 10
-137.1016
 20
88.7697
 30
0.0
  0
VERTEX
  5
101
  8
LAYER_1
 62
     1
 10
-137.1016
 20
58.4697
 30
0.0
  0
VERTEX
  5
102
  8
LAYER_1
 62
     1
 10
-131.0416
 20
52.4097
 30
0.0
  0
VERTEX
  5
103
  8
LAYER_1
 62
     1
 10
-124.9816
 20
58.4697
 30
0.0
  0
VERTEX
  5
104
  8
LAYER_1
 62
     1
 10
-124.9816
 20
88.7697
 30
0.0
  0
VERTEX
  5
105
  8
LAYER_1
 62
     1
 10
-131.0416
 20
94.8297
 30
0.0
  0
SEQEND
  5
149
  8
LAYER_1
 62
     1
  0
POLYLINE
  5
81
  8
LAYER_1
 62
     1
 66
     1
 10
0.0
 20
0.0
 30
0.0
 70
     1
  0
VERTEX
  5
106
  8
LAYER_1
 62
     1
 10
-116.0416
 20
94.8297
 30
0.0
  0
VERTEX
  5
107
  8
LAYER_1
 62
     1
 10
-122.1016
 20
88.7697
 30
0.0
  0
VERTEX
  5
108
  8
LAYER_1
 62
     1
 10
-122.1016
 20
58.4697
 30
0.0
  0
VERTEX
  5
109
  8
LAYER_1
 62
     1
 10
-116.0416
 20
52.4097
 30
0.0
  0
VERTEX
  5
10A
  8
LAYER_1
 62
     1
 10
-109.9816
 20
58.4697
 30
0.0
  0
VERTEX
  5
10B
  8
LAYER_1
 62
     1
 10
-109.9816
 20
88.7697
 30
0.0
  0
VERTEX
  5
10C
  8
LAYER_1
 62
     1
 10
-116.0416
 20
94.8297
 30
0.0
  0
SEQEND
  5
14A
  8
LAYER_1
 62
     1
  0
POLYLINE
  5
82
  8
LAYER_1
 62
     1
 66
     1
 10
0.0
 20
0.0
 30
0.0
 70
     1
  0
VERTEX
  5
10D
  8
LAYER_1
 62
     1
 10
-101.0416
 20
94.8297
 30
0.0
  0
VERTEX
  5
10E
  8
LAYER_1
 62
     1
 10
-107.1016
 20
88.7697
 30
0.0
  0
VERTEX
  5
10F
  8
LAYER_1
 62
     1
 10
-107.1016
 20
58.4697
 30
0.0
  0
VERTEX
  5
110
  8
LAYER_1
 62
     1
 10
-101.0416
 20
52.4097
 30
0.0
  0
VERTEX
  5
111
  8
LAYER_1
 62
     1
 10
-94.9816
 20
58.4697
 30
0.0
  0
VERTEX
  5
112
  8
LAYER_1
 62
     1
 10
-94.9816
 20
88.7697
 30
0.0
  0
VERTEX
  5
113
  8
LAYER_1
 62
     1
 10
-101.0416
 20
94.8297
 30
0.0
  0
SEQEND
  5
14B
  8
LAYER_1
 62
     1
  0
POLYLINE
  5
83
  8
LAYER_1
 62
     1
 66
     1
 10
0.0
 20
0.0
 30
0.0
 70
     1
  0
VERTEX
  5
114
  8
LAYER_1
 62
     1
 10
-86.0416
 20
94.8297
 30
0.0
  0
VERTEX
  5
115
  8
LAYER_1
 62
     1
 10
-92.1016
 20
88.7697
 30
0.0
  0
VERTEX
  5
116
  8
LAYER_1
 62
     1
 10
-92.1016
 20
58.4697
 30
0.0
  0
VERTEX
  5
117
  8
LAYER_1
 62
     1
 10
-86.0416
 20
52.4097
 30
0.0
  0
VERTEX
  5
118
  8
LAYER_1
 62
     1
 10
-79.9816
 20
58.4697
 30
0.0
  0
VERTEX
  5
119
  8
LAYER_1
 62
     1
 10
-79.9816
 20
88.7697
 30
0.0
  0
VERTEX
  5
11A
  8
LAYER_1
 62
     1
 10
-86.0416
 20
94.8297
 30
0.0
  0
SEQEND
  5
14C
  8
LAYER_1
 62
     1
  0
POLYLINE
  5
84
  8
LAYER_1
 62
     1
 66
     1
 10
0.0
 20
0.0
 30
0.0
 70
     1
  0
VERTEX
  5
11B
  8
LAYER_1
 62
     1
 10
-71.0416
 20
94.8297
 30
0.0
  0
VERTEX
  5
11C
  8
LAYER_1
 62
     1
 10
-77.1016
 20
88.7697
 30
0.0
  0
VERTEX
  5
11D
  8
LAYER_1
 62
     1
 10
-77.1016
 20
58.4697
 30
0.0
  0
VERTEX
  5
11E
  8
LAYER_1
 62
     1
 10
-71.0416
 20
52.4097
 30
0.0
  0
VERTEX
  5
11F
  8
LAYER_1
 62
     1
 10
-64.9816
 20
58.4697
 30
0.0
  0
VERTEX
  5
120
  8
LAYER_1
 62
     1
 10
-64.9816
 20
88.7697
 30
0.0
  0
VERTEX
  5
121
  8
LAYER_1
 62
     1
 10
-71.0416
 20
94.8297
 30
0.0
  0
SEQEND
  5
14D
  8
LAYER_1
 62
     1
  0
POLYLINE
  5
85
  8
LAYER_1
 62
     1
 66
     1
 10
0.0
 20
0.0
 30
0.0
 70
     1
  0
VERTEX
  5
122
  8
LAYER_1
 62
     1
 10
-56.0416
 20
94.8297
 30
0.0
  0
VERTEX
  5
123
  8
LAYER_1
 62
     1
 10
-62.1016
 20
88.7697
 30
0.0
  0
VERTEX
  5
124
  8
LAYER_1
 62
     1
 10
-62.1016
 20
58.4697
 30
0.0
  0
VERTEX
  5
125
  8
LAYER_1
 62
     1
 10
-56.0416
 20
52.4097
 30
0.0
  0
VERTEX
  5
126
  8
LAYER_1
 62
     1
 10
-49.9816
 20
58.4697
 30
0.0
  0
VERTEX
  5
127
  8
LAYER_1
 62
     1
 10
-49.9816
 20
88.7697
 30
0.0
  0
VERTEX
  5
128
  8
LAYER_1
 62
     1
 10
-56.0416
 20
94.8297
 30
0.0
  0
SEQEND
  5
14E
  8
LAYER_1
 62
     1
  0
POLYLINE
  5
86
  8
LAYER_1
 62
     1
 66
     1
 10
0.0
 20
0.0
 30
0.0
 70
     1
  0
VERTEX
  5
129
  8
LAYER_1
 62
     1
 10
-41.0416
 20
94.8297
 30
0.0
  0
VERTEX
  5
12A
  8
LAYER_1
 62
     1
 10
-47.1016
 20
88.7697
 30
0.0
  0
VERTEX
  5
12B
  8
LAYER_1
 62
     1
 10
-47.1016
 20
58.4697
 30
0.0
  0
VERTEX
  5
12C
  8
LAYER_1
 62
     1
 10
-41.0416
 20
52.4097
 30
0.0
  0
VERTEX
  5
12D
  8
LAYER_1
 62
     1
 10
-34.9816
 20
58.4697
 30
0.0
  0
VERTEX
  5
12E
  8
LAYER_1
 62
     1
 10
-34.9816
 20
88.7697
 30
0.0
  0
VERTEX
  5
12F
  8
LAYER_1
 62
     1
 10
-41.0416
 20
94.8297
 30
0.0
  0
SEQEND
  5
14F
  8
LAYER_1
 62
     1
  0
POLYLINE
  5
87
  8
LAYER_1
 62
     1
 66
     1
 10
0.0
 20
0.0
 30
0.0
 70
     1
  0
VERTEX
  5
130
  8
LAYER_1
 62
     1
 10
-26.0416
 20
94.8297
 30
0.0
  0
VERTEX
  5
131
  8
LAYER_1
 62
     1
 10
-32.1016
 20
88.7697
 30
0.0
  0
VERTEX
  5
132
  8
LAYER_1
 62
     1
 10
-32.1016
 20
58.4697
 30
0.0
  0
VERTEX
  5
133
  8
LAYER_1
 62
     1
 10
-26.0416
 20
52.4097
 30
0.0
  0
VERTEX
  5
134
  8
LAYER_1
 62
     1
 10
-19.9816
 20
58.4697
 30
0.0
  0
VERTEX
  5
135
  8
LAYER_1
 62
     1
 10
-19.9816
 20
88.7697
 30
0.0
  0
VERTEX
  5
136
  8
LAYER_1
 62
     1
 10
-26.0416
 20
94.8297
 30
0.0
  0
SEQEND
  5
150
  8
LAYER_1
 62
     1
  0
ENDSEC
  0
EOF
