0
SECTION
2
HEADER
9
$INSUNITS
70
4
9
$ACADVER
1
AC1014
9
$HANDSEED
5
FFFF
0
ENDSEC
0
SECTION
2
TABLES
0
TABLE
2
VPORT
5
8
100
AcDbSymbolTable
0
ENDTAB
0
TABLE
2
LTYPE
5
5
100
AcDbSymbolTable
0
LTYPE
5
14
100
AcDbSymbolTableRecord
100
AcDbLinetypeTableRecord
2
BYBLOCK
70
0
0
LTYPE
5
15
100
AcDbSymbolTableRecord
100
AcDbLinetypeTableRecord
2
BYLAYER
70
0
0
ENDTAB
0
TABLE
2
LAYER
5
2
100
AcDbSymbolTable
70
2
0
LAYER
5
50
100
AcDbSymbolTableRecord
100
AcDbLayerTableRecord
2
0
70
0
6
CONTINUOUS
0
ENDTAB
0
TABLE
2
STYLE
5
3
100
AcDbSymbolTable
70
1
0
STYLE
5
11
100
AcDbSymbolTableRecord
100
AcDbTextStyleTableRecord
2
STANDARD
70
0
0
ENDTAB
0
TABLE
2
VIEW
5
6
100
AcDbSymbolTable
70
0
0
ENDTAB
0
TABLE
2
UCS
5
7
100
AcDbSymbolTable
70
0
0
ENDTAB
0
TABLE
2
APPID
5
9
100
AcDbSymbolTable
70
2
0
APPID
5
12
100
AcDbSymbolTableRecord
100
AcDbRegAppTableRecord
2
ACAD
70
0
0
ENDTAB
0
TABLE
2
DIMSTYLE
5
A
100
AcDbSymbolTable
70
1
0
ENDTAB
0
TABLE
2
BLOCK_RECORD
5
1
100
AcDbSymbolTable
70
1
0
BLOCK_RECORD
5
1F
100
AcDbSymbolTableRecord
100
AcDbBlockTableRecord
2
*MODEL_SPACE
0
BLOCK_RECORD
5
1B
100
AcDbSymbolTableRecord
100
AcDbBlockTableRecord
2
*PAPER_SPACE
0
ENDTAB
0
ENDSEC
0
SECTION
2
BLOCKS
0
BLOCK
5
20
100
AcDbEntity
100
AcDbBlockBegin
2
*MODEL_SPACE
0
ENDBLK
5
21
100
AcDbEntity
100
AcDbBlockEnd
0
BLOCK
5
1C
100
AcDbEntity
100
AcDbBlockBegin
2
*PAPER_SPACE
0
ENDBLK
5
1D
100
AcDbEntity
100
AcDbBlockEnd
0
ENDSEC
0
SECTION
2
ENTITIES
0
LWPOLYLINE
5
100
100
AcDbEntity
8
0
100
AcDbPolyline
90
4
70
1
43
0.0
10
228.07106781186587
20
-77.142135623732145
10
220.07106781186582
20
-77.142135623732145
10
220.07106781186587
20
-8
10
228.0710678118659
20
-7.9999999999999982
0
LINE
5
101
100
AcDbEntity
8
0
100
AcDbLine
10
340.14213562372896
20
-8
30
0
11
7.9999999999999716
21
-8
31
0
0
LINE
5
102
100
AcDbEntity
8
0
100
AcDbLine
10
8
20
0
30
0
11
8
21
-174.2842712474642
31
0
0
LINE
5
103
100
AcDbEntity
8
0
100
AcDbLine
10
340.14213562372782
20
-166.28427124746426
30
0
11
7.9999999999999716
21
-166.28427124746423
31
0
0
LINE
5
104
100
AcDbEntity
8
0
100
AcDbLine
10
340.14213562372896
20
-3.5981736982910848e-14
30
0
11
340.14213562372896
21
-174.28427124746423
31
0
0
LWPOLYLINE
5
105
100
AcDbEntity
8
0
100
AcDbPolyline
90
6
70
1
43
0.0
10
295.07106781186451
20
-30.999999999999979
10
289.07106781186451
20
-24.999999999999964
10
259.07106781186451
20
-25.000000000000036
10
253.07106781186459
20
-30.999999999999979
10
259.07106781186451
20
-36.999999999999922
10
289.07106781186457
20
-36.999999999999957
0
LWPOLYLINE
5
106
100
AcDbEntity
8
0
100
AcDbPolyline
90
6
70
1
43
0.0
10
302.14213562372913
20
-80.071067811864765
10
308.14213562372913
20
-74.071067811864765
10
308.14213562372913
20
-44.071067811864765
10
302.14213562372913
20
-38.071067811864822
10
296.14213562372913
20
-44.071067811864765
10
296.14213562372913
20
-74.071067811864765
0
LWPOLYLINE
5
107
100
AcDbEntity
8
0
100
AcDbPolyline
90
6
70
1
43
0.0
10
259.071067811864
20
-93.142135623730439
10
289.071067811864
20
-93.14213562373007
10
295.07106781186343
20
-87.14213562373007
10
289.071067811864
20
-81.142135623730084
10
259.07106781186405
20
-81.14213562373051
10
253.07106781186457
20
-87.142135623730468
0
LWPOLYLINE
5
108
100
AcDbEntity
8
0
100
AcDbPolyline
90
6
70
1
43
0.0
10
240.00000000000011
20
-44.071067811865575
10
239.99999999999997
20
-74.071067811865575
10
245.99999999999997
20
-80.071067811862306
10
251.99999999999994
20
-74.071067811865575
10
251.99999999999977
20
-44.071067811865575
10
245.99999999999994
20
-38.071067811864822
0
LWPOLYLINE
5
109
100
AcDbEntity
8
0
100
AcDbPolyline
90
6
70
1
43
0.0
10
302.14213562372879
20
-94.213203435595787
10
296.14213562372879
20
-100.21320343559603
10
296.14213562372873
20
-130.21320343559606
10
302.14213562372879
20
-136.21320343559609
10
308.14213562372879
20
-130.21320343559606
10
308.14213562372879
20
-100.21320343559603
0
LWPOLYLINE
5
110
100
AcDbEntity
8
0
100
AcDbPolyline
90
6
70
1
43
0.0
10
253.07106781186246
20
-143.2842712474631
10
259.07106781186224
20
-149.2842712474631
10
289.07106781186224
20
-149.28427124746318
10
295.07106781186201
20
-143.28427124746312
10
289.07106781186224
20
-137.28427124746307
10
259.07106781186224
20
-137.2842712474631
0
LWPOLYLINE
5
111
100
AcDbEntity
8
0
100
AcDbPolyline
90
6
70
1
43
0.0
10
245.99999999999798
20
-136.21320343559665
10
251.99999999999795
20
-130.21320343559668
10
251.99999999999801
20
-100.21320343559667
10
245.99999999999798
20
-94.213203435596625
10
239.99999999999795
20
-100.21320343559667
10
239.99999999999795
20
-130.21320343559668
0
LWPOLYLINE
5
112
100
AcDbEntity
8
0
100
AcDbPolyline
90
6
70
1
43
0.0
10
202.14213562372879
20
-94.213203435595787
10
196.14213562372879
20
-100.21320343559603
10
196.14213562372871
20
-130.21320343559606
10
202.14213562372876
20
-136.21320343559609
10
208.14213562372879
20
-130.21320343559606
10
208.14213562372879
20
-100.21320343559603
0
LWPOLYLINE
5
113
100
AcDbEntity
8
0
100
AcDbPolyline
90
6
70
1
43
0.0
10
153.07106781186249
20
-143.2842712474631
10
159.07106781186224
20
-149.2842712474631
10
189.07106781186224
20
-149.28427124746318
10
195.07106781186201
20
-143.28427124746312
10
189.07106781186224
20
-137.28427124746307
10
159.07106781186224
20
-137.2842712474631
0
LWPOLYLINE
5
114
100
AcDbEntity
8
0
100
AcDbPolyline
90
6
70
1
43
0.0
10
145.99999999999798
20
-136.21320343559665
10
151.99999999999801
20
-130.21320343559668
10
151.99999999999801
20
-100.21320343559667
10
145.99999999999798
20
-94.213203435596625
10
139.99999999999798
20
-100.21320343559667
10
139.99999999999798
20
-130.21320343559668
0
LWPOLYLINE
5
115
100
AcDbEntity
8
0
100
AcDbPolyline
90
6
70
1
43
0.0
10
159.07106781186403
20
-93.142135623730439
10
189.071067811864
20
-93.14213562373007
10
195.07106781186343
20
-87.14213562373007
10
189.071067811864
20
-81.142135623730084
10
159.071067811864
20
-81.14213562373051
10
153.07106781186459
20
-87.142135623730468
0
LWPOLYLINE
5
116
100
AcDbEntity
8
0
100
AcDbPolyline
90
6
70
1
43
0.0
10
202.14213562372913
20
-80.071067811864765
10
208.14213562372913
20
-74.071067811864765
10
208.14213562372913
20
-44.071067811864765
10
202.14213562372913
20
-38.071067811864822
10
196.1421356237291
20
-44.071067811864765
10
196.14213562372913
20
-74.071067811864765
0
LWPOLYLINE
5
117
100
AcDbEntity
8
0
100
AcDbPolyline
90
6
70
1
43
0.0
10
195.07106781186451
20
-30.999999999999979
10
189.07106781186451
20
-24.999999999999964
10
159.07106781186454
20
-25
10
153.07106781186459
20
-30.999999999999979
10
159.07106781186454
20
-36.999999999999943
10
189.07106781186457
20
-36.999999999999972
0
LWPOLYLINE
5
118
100
AcDbEntity
8
0
100
AcDbPolyline
90
6
70
1
43
0.0
10
140.00000000000011
20
-44.071067811865575
10
139.99999999999997
20
-74.071067811865575
10
145.99999999999997
20
-80.071067811862306
10
152
20
-74.071067811865575
10
151.99999999999983
20
-44.071067811865575
10
145.99999999999994
20
-38.071067811864822
0
LWPOLYLINE
5
119
100
AcDbEntity
8
0
100
AcDbPolyline
90
6
70
1
43
0.0
10
96.142135623729118
20
-44.071067811864765
10
96.14213562372916
20
-74.071067811864765
10
102.14213562372916
20
-80.071067811864765
10
108.14213562372915
20
-74.071067811864765
10
108.14213562372915
20
-44.071067811864765
10
102.14213562372913
20
-38.071067811864822
0
LWPOLYLINE
5
120
100
AcDbEntity
8
0
100
AcDbPolyline
90
6
70
1
43
0.0
10
59.07106781186453
20
-25
10
53.071067811864587
20
-30.999999999999979
10
59.071067811864538
20
-36.99999999999995
10
89.071067811864552
20
-36.999999999999972
10
95.071067811864495
20
-30.999999999999979
10
89.071067811864538
20
-24.999999999999972
0
LWPOLYLINE
5
121
100
AcDbEntity
8
0
100
AcDbPolyline
90
6
70
1
43
0.0
10
59.071067811864005
20
-81.14213562373051
10
53.071067811864559
20
-87.142135623730468
10
59.071067811864005
20
-93.142135623730439
10
89.071067811863998
20
-93.14213562373007
10
95.071067811863429
20
-87.14213562373007
10
89.071067811863998
20
-81.142135623730084
0
LWPOLYLINE
5
122
100
AcDbEntity
8
0
100
AcDbPolyline
90
6
70
1
43
0.0
10
40.000000000000099
20
-44.071067811865575
10
39.999999999999964
20
-74.071067811865575
10
45.999999999999972
20
-80.071067811862306
10
51.999999999999964
20
-74.071067811865575
10
51.999999999999801
20
-44.071067811865575
10
45.999999999999943
20
-38.071067811864822
0
LWPOLYLINE
5
123
100
AcDbEntity
8
0
100
AcDbPolyline
90
6
70
1
43
0.0
10
108.14213562372876
20
-130.21320343559606
10
108.14213562372876
20
-100.21320343559603
10
102.14213562372876
20
-94.213203435595787
10
96.142135623728791
20
-100.21320343559603
10
96.142135623728748
20
-130.21320343559606
10
102.14213562372876
20
-136.21320343559609
0
LWPOLYLINE
5
124
100
AcDbEntity
8
0
100
AcDbPolyline
90
6
70
1
43
0.0
10
89.071067811862221
20
-137.28427124746307
10
59.071067811862221
20
-137.2842712474631
10
53.071067811862484
20
-143.2842712474631
10
59.071067811862221
20
-149.2842712474631
10
89.071067811862221
20
-149.28427124746318
10
95.071067811862008
20
-143.28427124746312
0
LWPOLYLINE
5
125
100
AcDbEntity
8
0
100
AcDbPolyline
90
6
70
1
43
0.0
10
51.999999999997975
20
-130.21320343559668
10
51.999999999997975
20
-100.21320343559667
10
45.999999999997968
20
-94.213203435596625
10
39.999999999997961
20
-100.21320343559667
10
39.999999999997975
20
-130.21320343559668
10
45.999999999997982
20
-136.21320343559665
0
CIRCLE
5
126
100
AcDbEntity
8
0
100
AcDbCircle
10
30.999999999999993
20
-87.142135623730468
30
0
40
4.0000000000000044
0
CIRCLE
5
127
100
AcDbEntity
8
0
100
AcDbCircle
10
12.000000000000002
20
-157.34547300762753
30
0
40
1.4999999999999973
0
CIRCLE
5
128
100
AcDbEntity
8
0
100
AcDbCircle
10
12.000000000000002
20
-16
30
0
40
1.4999999999999973
0
CIRCLE
5
129
100
AcDbEntity
8
0
100
AcDbCircle
10
336.14213562372896
20
-16
30
0
40
1.4999999999999973
0
CIRCLE
5
130
100
AcDbEntity
8
0
100
AcDbCircle
10
336.14213562372896
20
-158.28427124746423
30
0
40
1.4999999999999973
0
LINE
5
131
100
AcDbEntity
8
0
100
AcDbLine
10
340.14213562372896
20
-159.2842712474642
30
0
11
340.14213562372896
21
-142.42741699797136
31
0
0
LINE
5
132
100
AcDbEntity
8
0
100
AcDbLine
10
332.1421356237289
20
-166.28427124746423
30
0
11
340.14213562372782
21
-166.28427124746426
31
0
0
LINE
5
133
100
AcDbEntity
8
0
100
AcDbLine
10
332.14213562372896
20
-8
30
0
11
340.14213562372896
21
-8
31
0
0
LINE
5
134
100
AcDbEntity
8
0
100
AcDbLine
10
8
20
-31.856854249492841
30
0
11
8
21
-15
31
0
0
LINE
5
135
100
AcDbEntity
8
0
100
AcDbLine
10
16
20
-8
30
0
11
15.999999999999982
21
-166.28427124746423
31
0
0
ENDSEC
0
SECTION
2
OBJECTS
0
DICTIONARY
5
C
100
AcDbDictionary
3
ACAD_GROUP
350
D
3
ACAD_MLINESTYLE
350
17
0
DICTIONARY
5
D
100
AcDbDictionary
0
DICTIONARY
5
1A
330
C
100
AcDbDictionary
0
DICTIONARY
5
17
100
AcDbDictionary
0
ENDSEC
0
EOF
