<?xml version="1.0" encoding="UTF-8" standalone="no"?>
<svg
   xmlns:dc="http://purl.org/dc/elements/1.1/"
   xmlns:cc="http://creativecommons.org/ns#"
   xmlns:rdf="http://www.w3.org/1999/02/22-rdf-syntax-ns#"
   xmlns:svg="http://www.w3.org/2000/svg"
   xmlns="http://www.w3.org/2000/svg"
   xmlns:sodipodi="http://sodipodi.sourceforge.net/DTD/sodipodi-0.dtd"
   xmlns:inkscape="http://www.inkscape.org/namespaces/inkscape"
   width="744.094488189"
   height="1052.36220472"
   id="svg4155"
   version="1.1"
   inkscape:version="0.91 r13725"
   sodipodi:docname="countdown.svg">
  <metadata
     id="metadata4179">
    <rdf:RDF>
      <cc:Work
         rdf:about="">
        <dc:format>image/svg+xml</dc:format>
        <dc:type
           rdf:resource="http://purl.org/dc/dcmitype/StillImage" />
        <dc:title />
      </cc:Work>
    </rdf:RDF>
  </metadata>
  <sodipodi:namedview
     pagecolor="#ffffff"
     bordercolor="#666666"
     borderopacity="1"
     objecttolerance="10"
     gridtolerance="10"
     guidetolerance="10"
     inkscape:pageopacity="0"
     inkscape:pageshadow="2"
     inkscape:window-width="1280"
     inkscape:window-height="694"
     id="namedview4177"
     showgrid="false"
     inkscape:zoom="0.16529316"
     inkscape:cx="918.23601"
     inkscape:cy="698.28243"
     inkscape:window-x="0"
     inkscape:window-y="0"
     inkscape:window-maximized="1"
     inkscape:current-layer="g4173" />
  <desc
     id="desc4157">/Users/krijnschaap/Desktop/Countdown/Front.dxf - scale = 1.000000, origin = (0.000000, 0.000000), auto = False</desc>
  <defs
     id="defs4159">
    <marker
       id="DistanceX"
       orient="auto"
       refX="0.0"
       refY="0.0"
       style="overflow:visible">
      <path
         d="M 3,-3 L -3,3 M 0,-5 L  0,5"
         style="stroke:#000000; stroke-width:0.5"
         id="path4162" />
    </marker>
    <pattern
       height="8"
       id="Hatch"
       patternUnits="userSpaceOnUse"
       width="8"
       x="0"
       y="0">
      <path
         d="M8 4 l-4,4"
         linecap="square"
         stroke="#000000"
         stroke-width="0.25"
         id="path4165" />
      <path
         d="M6 2 l-4,4"
         linecap="square"
         stroke="#000000"
         stroke-width="0.25"
         id="path4167" />
      <path
         d="M4 0 l-4,4"
         linecap="square"
         stroke="#000000"
         stroke-width="0.25"
         id="path4169" />
    </pattern>
    <symbol
       id="*MODEL_SPACE" />
    <symbol
       id="*PAPER_SPACE" />
    <marker
       style="overflow:visible"
       refY="0.0"
       refX="0.0"
       orient="auto"
       id="DistanceX-1">
      <path
         id="path4207"
         style="stroke:#000000; stroke-width:0.5"
         d="M 3,-3 L -3,3 M 0,-5 L  0,5" />
    </marker>
    <pattern
       y="0"
       x="0"
       width="8"
       patternUnits="userSpaceOnUse"
       id="Hatch-7"
       height="8">
      <path
         id="path4210"
         stroke-width="0.25"
         stroke="#000000"
         linecap="square"
         d="M8 4 l-4,4" />
      <path
         id="path4212"
         stroke-width="0.25"
         stroke="#000000"
         linecap="square"
         d="M6 2 l-4,4" />
      <path
         id="path4214"
         stroke-width="0.25"
         stroke="#000000"
         linecap="square"
         d="M4 0 l-4,4" />
    </pattern>
    <symbol
       id="*MODEL_SPACE-9" />
    <symbol
       id="*PAPER_SPACE-6" />
    <marker
       style="overflow:visible"
       refY="0.0"
       refX="0.0"
       orient="auto"
       id="DistanceX-5">
      <path
         id="path4262"
         style="stroke:#000000; stroke-width:0.5"
         d="M 3,-3 L -3,3 M 0,-5 L  0,5" />
    </marker>
    <pattern
       y="0"
       x="0"
       width="8"
       patternUnits="userSpaceOnUse"
       id="Hatch-4"
       height="8">
      <path
         id="path4265"
         stroke-width="0.25"
         stroke="#000000"
         linecap="square"
         d="M8 4 l-4,4" />
      <path
         id="path4267"
         stroke-width="0.25"
         stroke="#000000"
         linecap="square"
         d="M6 2 l-4,4" />
      <path
         id="path4269"
         stroke-width="0.25"
         stroke="#000000"
         linecap="square"
         d="M4 0 l-4,4" />
    </pattern>
    <symbol
       id="*MODEL_SPACE-1" />
    <symbol
       id="*PAPER_SPACE-8" />
    <marker
       style="overflow:visible"
       refY="0.0"
       refX="0.0"
       orient="auto"
       id="DistanceX-0">
      <path
         id="path4317"
         style="stroke:#000000; stroke-width:0.5"
         d="M 3,-3 L -3,3 M 0,-5 L  0,5" />
    </marker>
    <pattern
       y="0"
       x="0"
       width="8"
       patternUnits="userSpaceOnUse"
       id="Hatch-3"
       height="8">
      <path
         id="path4320"
         stroke-width="0.25"
         stroke="#000000"
         linecap="square"
         d="M8 4 l-4,4" />
      <path
         id="path4322"
         stroke-width="0.25"
         stroke="#000000"
         linecap="square"
         d="M6 2 l-4,4" />
      <path
         id="path4324"
         stroke-width="0.25"
         stroke="#000000"
         linecap="square"
         d="M4 0 l-4,4" />
    </pattern>
    <symbol
       id="*MODEL_SPACE-99" />
    <symbol
       id="*PAPER_SPACE-1" />
    <marker
       style="overflow:visible"
       refY="0.0"
       refX="0.0"
       orient="auto"
       id="DistanceX-2">
      <path
         id="path4372"
         style="stroke:#000000; stroke-width:0.5"
         d="M 3,-3 L -3,3 M 0,-5 L  0,5" />
    </marker>
    <pattern
       y="0"
       x="0"
       width="8"
       patternUnits="userSpaceOnUse"
       id="Hatch-31"
       height="8">
      <path
         id="path4375"
         stroke-width="0.25"
         stroke="#000000"
         linecap="square"
         d="M8 4 l-4,4" />
      <path
         id="path4377"
         stroke-width="0.25"
         stroke="#000000"
         linecap="square"
         d="M6 2 l-4,4" />
      <path
         id="path4379"
         stroke-width="0.25"
         stroke="#000000"
         linecap="square"
         d="M4 0 l-4,4" />
    </pattern>
    <symbol
       id="*MODEL_SPACE-7" />
    <symbol
       id="*PAPER_SPACE-4" />
    <marker
       style="overflow:visible"
       refY="0.0"
       refX="0.0"
       orient="auto"
       id="DistanceX-6">
      <path
         id="path4532"
         style="stroke:#000000; stroke-width:0.5"
         d="M 3,-3 L -3,3 M 0,-5 L  0,5" />
    </marker>
    <pattern
       y="0"
       x="0"
       width="8"
       patternUnits="userSpaceOnUse"
       id="Hatch-5"
       height="8">
      <path
         id="path4535"
         stroke-width="0.25"
         stroke="#000000"
         linecap="square"
         d="M8 4 l-4,4" />
      <path
         id="path4537"
         stroke-width="0.25"
         stroke="#000000"
         linecap="square"
         d="M6 2 l-4,4" />
      <path
         id="path4539"
         stroke-width="0.25"
         stroke="#000000"
         linecap="square"
         d="M4 0 l-4,4" />
    </pattern>
    <symbol
       id="*MODEL_SPACE-8" />
    <symbol
       id="*PAPER_SPACE-9" />
    <marker
       style="overflow:visible"
       refY="0.0"
       refX="0.0"
       orient="auto"
       id="DistanceX-7">
      <path
         id="path4587"
         style="stroke:#000000; stroke-width:0.5"
         d="M 3,-3 L -3,3 M 0,-5 L  0,5" />
    </marker>
    <pattern
       y="0"
       x="0"
       width="8"
       patternUnits="userSpaceOnUse"
       id="Hatch-76"
       height="8">
      <path
         id="path4590"
         stroke-width="0.25"
         stroke="#000000"
         linecap="square"
         d="M8 4 l-4,4" />
      <path
         id="path4592"
         stroke-width="0.25"
         stroke="#000000"
         linecap="square"
         d="M6 2 l-4,4" />
      <path
         id="path4594"
         stroke-width="0.25"
         stroke="#000000"
         linecap="square"
         d="M4 0 l-4,4" />
    </pattern>
    <symbol
       id="*MODEL_SPACE-87" />
    <symbol
       id="*PAPER_SPACE-49" />
  </defs>
  <g
     inkscape:groupmode="layer"
     inkscape:label="0"
     id="g4173">
    <path
       d="m 1175.1546,973.22114 0,24.8032 28.3465,0 0,53.14956 -28.3465,0 0,53.1496 28.3465,0 0,53.1496 -28.3465,0 0,53.1496 -1176.881538,0 0,-53.1496 -28.346457,0 0,-53.1496 28.346457,0 0,-53.1496 -28.346457,0 0,-53.14956 28.346457,0 0,-24.8032 49.352992,0 0,-28.3465 53.149616,0 0,28.3465 49.35299,0 0,-28.3465 53.1496,0 0,28.3465 49.353,0 0,-28.3465 53.1496,0 0,28.3465 49.353,0 0,-28.3465 53.1496,0 0,28.3465 49.353,0 0,-28.3465 53.1496,0 0,28.3465 49.35299,0 0,-28.3465 53.14961,0 0,28.3465 49.35299,0 0,-28.3465 53.14961,0 0,28.3465 49.35299,0 0,-28.3465 53.14961,0 0,28.3465 49.35299,0 0,-28.3465 53.14961,0 0,28.3465 49.35299,0 0,-28.3465 53.14955,0 0,28.3465 49.353,0 0,-28.3465 53.1496,0 0,28.3465 49.353,0 z"
       style="fill:none;stroke:#000000"
       id="path4175"
       inkscape:connector-curvature="0" />
    <g
       id="g4218"
       inkscape:label="0"
       transform="translate(-25.7955,211.86306)">
      <path
         id="path4220"
         style="fill:none;stroke:#000000"
         d="m 1205.228,1052.3622 0,24.8032 28.3465,0 0,53.1496 -28.3465,0 0,53.1496 28.3465,0 0,53.1496 -28.3465,0 0,53.1496 -1176.881543,0 0,-53.1496 -28.346457,0 0,-53.1496 28.346457,0 0,-53.1496 -28.346457,0 0,-53.1496 28.346457,0 0,-24.8032 49.352992,0 0,-28.3465 53.149611,0 0,28.3465 49.35299,0 0,-28.3465 53.1496,0 0,28.3465 49.353,0 0,-28.3465 53.1496,0 0,28.3465 49.353,0 0,-28.3465 53.1496,0 0,28.3465 49.353,0 0,-28.3465 53.1496,0 0,28.3465 49.35299,0 0,-28.3465 53.14961,0 0,28.3465 49.35299,0 0,-28.3465 53.14961,0 0,28.3465 49.35299,0 0,-28.3465 53.14961,0 0,28.3465 49.35299,0 0,-28.3465 53.14961,0 0,28.3465 49.35295,0 0,-28.3465 53.1496,0 0,28.3465 49.353,0 0,-28.3465 53.1496,0 0,28.3465 49.353,0 z"
         inkscape:connector-curvature="0" />
    </g>
    <g
       id="g4273"
       inkscape:label="0"
       transform="translate(-25.7955,-370.72129)">
      <path
         id="path4275"
         style="fill:none;stroke:#000000"
         d="m 589.19624,1130.315 28.34645,0 0,53.1496 -28.34645,0 0,53.1496 28.34645,0 0,53.1496 -617.54269,0 0,-53.1496 28.346457,0 0,-53.1496 -28.346457,0 0,-53.1496 28.346457,0 0,-53.1496 -28.346457,0 0,-53.1497 53.149606,0 0,28.3465 59.729014,0 0,-28.3465 53.1496,0 0,28.3465 59.72901,0 0,-28.3465 53.14961,0 0,28.3465 59.72901,0 0,-28.3465 53.14961,0 0,28.3465 59.72901,0 0,-28.3465 53.14961,0 0,28.3465 59.72901,0 0,-28.3465 53.1496,0 0,53.1497 -28.34645,0 0,53.1496 z"
         inkscape:connector-curvature="0" />
    </g>
    <g
       id="g4328"
       inkscape:label="0"
       transform="translate(674.33043,-370.72128)">
      <path
         id="path4330"
         style="fill:none;stroke:#000000"
         d="m 589.19624,1130.315 28.34645,0 0,53.1496 -28.34645,0 0,53.1496 28.34645,0 0,53.1496 -617.54269,0 0,-53.1496 28.346457,0 0,-53.1496 -28.346457,0 0,-53.1496 28.346457,0 0,-53.1496 -28.346457,0 0,-53.1497 53.149606,0 0,28.3465 59.729014,0 0,-28.3465 53.1496,0 0,28.3465 59.72901,0 0,-28.3465 53.14961,0 0,28.3465 59.72901,0 0,-28.3465 53.14961,0 0,28.3465 59.72901,0 0,-28.3465 53.14961,0 0,28.3465 59.72901,0 0,-28.3465 53.1496,0 0,53.1497 -28.34645,0 0,53.1496 z"
         inkscape:connector-curvature="0" />
    </g>
    <g
       id="g4383"
       inkscape:label="0"
       transform="translate(-54.141957,-1013.5797)">
      <path
         id="path4387"
         style="fill:none;stroke:#000000"
         d="m 1205.228,1080.7087 -1176.881543,0"
         inkscape:connector-curvature="0" />
      <path
         id="path4389"
         style="fill:none;stroke:#000000"
         d="m 28.346457,1052.3622 0,617.5427"
         inkscape:connector-curvature="0" />
      <path
         id="path4391"
         style="fill:none;stroke:#000000"
         d="m 1205.228,1641.5584 -1176.881543,0"
         inkscape:connector-curvature="0" />
      <path
         id="path4393"
         style="fill:none;stroke:#000000"
         d="m 1205.228,1052.3622 0,617.5427"
         inkscape:connector-curvature="0" />
      <path
         id="path4395"
         style="fill:none;stroke:#0000ff;stroke-opacity:1"
         d="m 1045.5274,1162.2047 -21.2598,-21.2598 -106.29925,0 -21.25984,21.2598 21.25984,21.2599 106.29925,0 21.2598,-21.2599 z"
         inkscape:connector-curvature="0" />
      <path
         id="path4397"
         style="fill:none;stroke:#0000ff;stroke-opacity:1"
         d="m 1070.5824,1336.0786 21.2598,-21.2599 0,-106.2992 -21.2598,-21.2598 -21.2599,21.2598 0,106.2992 21.2599,21.2599 z"
         inkscape:connector-curvature="0" />
      <path
         id="path4399"
         style="fill:none;stroke:#0000ff;stroke-opacity:1"
         d="m 917.96835,1382.3934 106.29925,0 21.2598,-21.2598 -21.2598,-21.2599 -106.29925,0 -21.25984,21.2599 21.25984,21.2598 z"
         inkscape:connector-curvature="0" />
      <path
         id="path4401"
         style="fill:none;stroke:#0000ff;stroke-opacity:1"
         d="m 850.3937,1208.5195 0,106.2992 21.25984,21.2599 21.25985,-21.2599 0,-106.2992 -21.25985,-21.2598 -21.25984,21.2598 z"
         inkscape:connector-curvature="0" />
      <path
         id="path4403"
         style="fill:none;stroke:#0000ff;stroke-opacity:1"
         d="m 1070.5824,1386.1885 -21.2599,21.2599 0,106.2992 21.2599,21.2598 21.2598,-21.2598 0,-106.2992 -21.2598,-21.2599 z"
         inkscape:connector-curvature="0" />
      <path
         id="path4405"
         style="fill:none;stroke:#0000ff;stroke-opacity:1"
         d="m 896.70851,1560.0624 21.25984,21.2598 106.29925,0 21.2598,-21.2598 -21.2598,-21.2599 -106.29925,0 -21.25984,21.2599 z"
         inkscape:connector-curvature="0" />
      <path
         id="path4407"
         style="fill:none;stroke:#0000ff;stroke-opacity:1"
         d="m 871.65354,1535.0074 21.25985,-21.2598 0,-106.2992 -21.25985,-21.2599 -21.25984,21.2599 0,106.2992 21.25984,21.2598 z"
         inkscape:connector-curvature="0" />
      <path
         id="path4409"
         style="fill:none;stroke:#0000ff;stroke-opacity:1"
         d="m 716.25166,1386.1885 -21.25984,21.2599 0,106.2992 21.25984,21.2598 21.25984,-21.2598 0,-106.2992 -21.25984,-21.2599 z"
         inkscape:connector-curvature="0" />
      <path
         id="path4411"
         style="fill:none;stroke:#0000ff;stroke-opacity:1"
         d="m 542.3778,1560.0624 21.25984,21.2598 106.29921,0 21.25985,-21.2598 -21.25985,-21.2599 -106.29921,0 -21.25984,21.2599 z"
         inkscape:connector-curvature="0" />
      <path
         id="path4413"
         style="fill:none;stroke:#0000ff;stroke-opacity:1"
         d="m 517.32284,1535.0074 21.25984,-21.2598 0,-106.2992 -21.25984,-21.2599 -21.25985,21.2599 0,106.2992 21.25985,21.2598 z"
         inkscape:connector-curvature="0" />
      <path
         id="path4415"
         style="fill:none;stroke:#0000ff;stroke-opacity:1"
         d="m 563.63764,1382.3934 106.29921,0 21.25985,-21.2598 -21.25985,-21.2599 -106.29921,0 -21.25984,21.2599 21.25984,21.2598 z"
         inkscape:connector-curvature="0" />
      <path
         id="path4417"
         style="fill:none;stroke:#0000ff;stroke-opacity:1"
         d="m 716.25166,1336.0786 21.25984,-21.2599 0,-106.2992 -21.25984,-21.2598 -21.25984,21.2598 0,106.2992 21.25984,21.2599 z"
         inkscape:connector-curvature="0" />
      <path
         id="path4419"
         style="fill:none;stroke:#0000ff;stroke-opacity:1"
         d="m 691.1967,1162.2047 -21.25985,-21.2598 -106.29921,0 -21.25984,21.2598 21.25984,21.2599 106.29921,0 21.25985,-21.2599 z"
         inkscape:connector-curvature="0" />
      <path
         id="path4421"
         style="fill:none;stroke:#0000ff;stroke-opacity:1"
         d="m 496.06299,1208.5195 0,106.2992 21.25985,21.2599 21.25984,-21.2599 0,-106.2992 -21.25984,-21.2598 -21.25985,21.2598 z"
         inkscape:connector-curvature="0" />
      <path
         id="path4423"
         style="fill:none;stroke:#0000ff;stroke-opacity:1"
         d="m 340.66111,1208.5195 0,106.2992 21.25984,21.2599 21.25985,-21.2599 0,-106.2992 -21.25985,-21.2598 -21.25984,21.2598 z"
         inkscape:connector-curvature="0" />
      <path
         id="path4425"
         style="fill:none;stroke:#0000ff;stroke-opacity:1"
         d="m 209.30693,1140.9449 -21.25984,21.2598 21.25984,21.2599 106.29922,0 21.25984,-21.2599 -21.25984,-21.2598 -106.29922,0 z"
         inkscape:connector-curvature="0" />
      <path
         id="path4427"
         style="fill:none;stroke:#0000ff;stroke-opacity:1"
         d="m 209.30693,1339.8737 -21.25984,21.2599 21.25984,21.2598 106.29922,0 21.25984,-21.2598 -21.25984,-21.2599 -106.29922,0 z"
         inkscape:connector-curvature="0" />
      <path
         id="path4429"
         style="fill:none;stroke:#0000ff;stroke-opacity:1"
         d="m 141.73228,1208.5195 0,106.2992 21.25985,21.2599 21.25984,-21.2599 0,-106.2992 -21.25984,-21.2598 -21.25985,21.2598 z"
         inkscape:connector-curvature="0" />
      <path
         id="path4431"
         style="fill:none;stroke:#0000ff;stroke-opacity:1"
         d="m 383.1808,1513.7476 0,-106.2992 -21.25985,-21.2599 -21.25984,21.2599 0,106.2992 21.25984,21.2598 21.25985,-21.2598 z"
         inkscape:connector-curvature="0" />
      <path
         id="path4433"
         style="fill:none;stroke:#0000ff;stroke-opacity:1"
         d="m 315.60615,1538.8025 -106.29922,0 -21.25984,21.2599 21.25984,21.2598 106.29922,0 21.25984,-21.2598 -21.25984,-21.2599 z"
         inkscape:connector-curvature="0" />
      <path
         id="path4435"
         style="fill:none;stroke:#0000ff;stroke-opacity:1"
         d="m 184.25197,1513.7476 0,-106.2992 -21.25984,-21.2599 -21.25985,21.2599 0,106.2992 21.25985,21.2598 21.25984,-21.2598 z"
         inkscape:connector-curvature="0" />
      <path
         id="path4437"
         style="fill:none;stroke:#ff0000;stroke-opacity:1"
         d="m 124.01575,1361.1336 a 14.173229,14.173229 0 1 0 -28.346459,0 14.173229,14.173229 0 1 0 28.346459,0 z"
         inkscape:connector-curvature="0" />
      <path
         id="path4439"
         style="fill:none;stroke:#ff0000;stroke-opacity:1"
         d="m 47.834646,1609.8855 a 5.314961,5.314961 0 1 0 -10.629922,0 5.314961,5.314961 0 1 0 10.629922,0 z"
         inkscape:connector-curvature="0" />
      <path
         id="path4441"
         style="fill:none;stroke:#ff0000;stroke-opacity:1"
         d="m 47.834646,1109.0551 a 5.314961,5.314961 0 1 0 -10.629922,0 5.314961,5.314961 0 1 0 10.629922,0 z"
         inkscape:connector-curvature="0" />
      <path
         id="path4443"
         style="fill:none;stroke:#ff0000;stroke-opacity:1"
         d="m 1196.3698,1109.0551 a 5.314961,5.314961 0 1 0 -10.6299,0 5.314961,5.314961 0 1 0 10.6299,0 z"
         inkscape:connector-curvature="0" />
      <path
         id="path4445"
         style="fill:none;stroke:#ff0000;stroke-opacity:1"
         d="m 1196.3698,1613.212 a 5.314961,5.314961 0 1 0 -10.6299,0 5.314961,5.314961 0 1 0 10.6299,0 z"
         inkscape:connector-curvature="0" />
      <path
         id="path4449"
         style="fill:none;stroke:#000000"
         d="m 1176.8816,1641.5584 28.3464,0"
         inkscape:connector-curvature="0" />
      <path
         id="path4451"
         style="fill:none;stroke:#000000"
         d="m 1176.8816,1080.7087 28.3464,0"
         inkscape:connector-curvature="0" />
    </g>
    <g
       id="g4598"
       inkscape:label="0"
       transform="translate(1207.779,-1656.2652)">
      <path
         id="path4600"
         style="fill:none;stroke:#ff0000;stroke-opacity:1"
         d="m -184.25197,1314.8187 21.25984,21.2599 21.25985,-21.2599 0,-106.2992 -21.25985,-21.2598 -21.25984,21.2598 0,106.2992 z"
         inkscape:connector-curvature="0" />
      <path
         id="path4602"
         style="fill:none;stroke:#ff0000;stroke-opacity:1"
         d="m -340.66111,1407.4484 -21.25984,-21.2599 -21.25985,21.2599 0,106.2992 21.25985,21.2598 21.25984,-21.2598 0,-106.2992 z"
         inkscape:connector-curvature="0" />
      <path
         id="path4604"
         style="fill:none;stroke:#ff0000;stroke-opacity:1"
         d="m -1045.5274,1560.0624 21.2598,21.2598 106.29925,0 21.25984,-21.2598 -21.25984,-21.2599 -106.29925,0 -21.2598,21.2599 z"
         inkscape:connector-curvature="0" />
      <path
         id="path4606"
         style="fill:none;stroke:#ff0000;stroke-opacity:1"
         d="m -315.60615,1183.4646 106.29922,0 21.25984,-21.2599 -21.25984,-21.2598 -106.29922,0 -21.25984,21.2598 21.25984,21.2599 z"
         inkscape:connector-curvature="0" />
      <path
         id="path4608"
         style="fill:none;stroke:#ff0000;stroke-opacity:1"
         d="m -871.65354,1386.1885 -21.25985,21.2599 0,106.2992 21.25985,21.2598 21.25984,-21.2598 0,-106.2992 -21.25984,-21.2599 z"
         inkscape:connector-curvature="0" />
      <path
         id="path4610"
         style="fill:none;stroke:#ff0000;stroke-opacity:1"
         d="m -141.73228,1407.4484 -21.25985,-21.2599 -21.25984,21.2599 0,106.2992 21.25984,21.2598 21.25985,-21.2598 0,-106.2992 z"
         inkscape:connector-curvature="0" />
      <path
         id="path4612"
         style="fill:none;stroke:#ff0000;stroke-opacity:1"
         d="m -383.1808,1314.8187 21.25985,21.2599 21.25984,-21.2599 0,-106.2992 -21.25984,-21.2598 -21.25985,21.2598 0,106.2992 z"
         inkscape:connector-curvature="0" />
      <path
         id="path4614"
         style="fill:none;stroke:#ff0000;stroke-opacity:1"
         d="m -716.25166,1535.0074 21.25984,-21.2598 0,-106.2992 -21.25984,-21.2599 -21.25984,21.2599 0,106.2992 21.25984,21.2598 z"
         inkscape:connector-curvature="0" />
      <path
         id="path4616"
         style="fill:none;stroke:#ff0000;stroke-opacity:1"
         d="m -669.93685,1339.8737 -21.25985,21.2599 21.25985,21.2598 106.29921,0 21.25984,-21.2598 -21.25984,-21.2599 -106.29921,0 z"
         inkscape:connector-curvature="0" />
      <path
         id="path4618"
         style="fill:none;stroke:#ff0000;stroke-opacity:1"
         d="m -538.58268,1314.8187 21.25984,21.2599 21.25985,-21.2599 0,-106.2992 -21.25985,-21.2598 -21.25984,21.2598 0,106.2992 z"
         inkscape:connector-curvature="0" />
      <path
         id="path4620"
         style="fill:none;stroke:#ff0000;stroke-opacity:1"
         d="m -517.32284,1386.1885 -21.25984,21.2599 0,106.2992 21.25984,21.2598 21.25985,-21.2598 0,-106.2992 -21.25985,-21.2599 z"
         inkscape:connector-curvature="0" />
      <path
         id="path4622"
         style="fill:none;stroke:#ff0000;stroke-opacity:1"
         d="m -315.60615,1382.3934 106.29922,0 21.25984,-21.2598 -21.25984,-21.2599 -106.29922,0 -21.25984,21.2599 21.25984,21.2598 z"
         inkscape:connector-curvature="0" />
      <path
         id="path4624"
         style="fill:none;stroke:#ff0000;stroke-opacity:1"
         d="m -1024.2676,1339.8737 -21.2598,21.2599 21.2598,21.2598 106.29925,0 21.25984,-21.2598 -21.25984,-21.2599 -106.29925,0 z"
         inkscape:connector-curvature="0" />
      <path
         id="path4626"
         style="fill:none;stroke:#ff0000;stroke-opacity:1"
         d="m -209.30693,1581.3222 21.25984,-21.2598 -21.25984,-21.2599 -106.29922,0 -21.25984,21.2599 21.25984,21.2598 106.29922,0 z"
         inkscape:connector-curvature="0" />
      <path
         id="path4628"
         style="fill:none;stroke:#ff0000;stroke-opacity:1"
         d="m -1070.5824,1535.0074 21.2599,-21.2598 0,-106.2992 -21.2599,-21.2599 -21.2598,21.2599 0,106.2992 21.2598,21.2598 z"
         inkscape:connector-curvature="0" />
      <path
         id="path4630"
         style="fill:none;stroke:#ff0000;stroke-opacity:1"
         d="m -896.70851,1162.2047 -21.25984,-21.2598 -106.29925,0 -21.2598,21.2598 21.2598,21.2599 106.29925,0 21.25984,-21.2599 z"
         inkscape:connector-curvature="0" />
      <path
         id="path4632"
         style="fill:none;stroke:#ff0000;stroke-opacity:1"
         d="m -691.1967,1560.0624 21.25985,21.2598 106.29921,0 21.25984,-21.2598 -21.25984,-21.2599 -106.29921,0 -21.25985,21.2599 z"
         inkscape:connector-curvature="0" />
      <path
         id="path4634"
         style="fill:none;stroke:#ff0000;stroke-opacity:1"
         d="m -542.3778,1162.2047 -21.25984,-21.2598 -106.29921,0 -21.25985,21.2598 21.25985,21.2599 106.29921,0 21.25984,-21.2599 z"
         inkscape:connector-curvature="0" />
      <path
         id="path4636"
         style="fill:none;stroke:#ff0000;stroke-opacity:1"
         d="m -892.91339,1314.8187 21.25985,21.2599 21.25984,-21.2599 0,-106.2992 -21.25984,-21.2598 -21.25985,21.2598 0,106.2992 z"
         inkscape:connector-curvature="0" />
      <path
         id="path4638"
         style="fill:none;stroke:#ff0000;stroke-opacity:1"
         d="m -716.25166,1187.2597 -21.25984,21.2598 0,106.2992 21.25984,21.2599 21.25984,-21.2599 0,-106.2992 -21.25984,-21.2598 z"
         inkscape:connector-curvature="0" />
      <path
         id="path4640"
         style="fill:none;stroke:#ff0000;stroke-opacity:1"
         d="m -1070.5824,1187.2597 -21.2598,21.2598 0,106.2992 21.2598,21.2599 21.2599,-21.2599 0,-106.2992 -21.2599,-21.2598 z"
         inkscape:connector-curvature="0" />
      <path
         id="path4642"
         style="fill:none;stroke:#000000"
         d="m -1205.228,1105.5118 0,-53.1496 49.353,0 0,28.3465 53.1496,0 0,-28.3465 49.353,0 0,28.3465 53.1496,0 0,-28.3465 49.35295,0 0,28.3465 53.14961,0 0,-28.3465 49.35299,0 0,28.3465 53.14961,0 0,-28.3465 49.35299,0 0,28.3465 53.14961,0 0,-28.3465 49.35299,0 0,28.3465 53.14961,0 0,-28.3465 49.35299,0 0,28.3465 53.1496,0 0,-28.3465 49.353,0 0,28.3465 53.1496,0 0,-28.3465 49.353,0 0,28.3465 53.1496,0 0,-28.3465 49.353,0 0,28.3465 53.1496,0 0,-28.3465 49.35299,0 0,28.3465 53.149611,0 0,-28.3465 49.352992,0 0,53.1496 28.346457,0 0,59.729 -28.346457,0 0,53.1496 28.346457,0 0,59.729 -28.346457,0 0,53.1496 28.346457,0 0,59.7291 -28.346457,0 0,53.1496 28.346457,0 0,59.729 -28.346457,0 0,53.1496 28.346457,0 0,59.729 -28.346457,0 0,53.1496 -49.352992,0 0,-28.3465 -53.149611,0 0,28.3465 -49.35299,0 0,-28.3465 -53.1496,0 0,28.3465 -49.353,0 0,-28.3465 -53.1496,0 0,28.3465 -49.353,0 0,-28.3465 -53.1496,0 0,28.3465 -49.353,0 0,-28.3465 -53.1496,0 0,28.3465 -49.35299,0 0,-28.3465 -53.14961,0 0,28.3465 -49.35299,0 0,-28.3465 -53.14961,0 0,28.3465 -49.35299,0 0,-28.3465 -53.14961,0 0,28.3465 -49.35299,0 0,-28.3465 -53.14961,0 0,28.3465 -49.35295,0 0,-28.3465 -53.1496,0 0,28.3465 -49.353,0 0,-28.3465 -53.1496,0 0,28.3465 -49.353,0 0,-53.1496 -28.3465,0 0,-59.729 28.3465,0 0,-53.1496 -28.3465,0 0,-59.729 28.3465,0 0,-53.1496 -28.3465,0 0,-59.7291 28.3465,0 0,-53.1496 -28.3465,0 0,-59.729 28.3465,0 0,-53.1496 -28.3465,0 0,-59.729 28.3465,0 z"
         inkscape:connector-curvature="0" />
    </g>
  </g>
</svg>
