0
SECTION
2
HEADER
9
$INSUNITS
70
4
9
$ACADVER
1
AC1014
9
$HANDSEED
5
FFFF
0
ENDSEC
0
SECTION
2
TABLES
0
TABLE
2
VPORT
5
8
100
AcDbSymbolTable
0
ENDTAB
0
TABLE
2
LTYPE
5
5
100
AcDbSymbolTable
0
LTYPE
5
14
100
AcDbSymbolTableRecord
100
AcDbLinetypeTableRecord
2
BYBLOCK
70
0
0
LTYPE
5
15
100
AcDbSymbolTableRecord
100
AcDbLinetypeTableRecord
2
BYLAYER
70
0
0
ENDTAB
0
TABLE
2
LAYER
5
2
100
AcDbSymbolTable
70
2
0
LAYER
5
50
100
AcDbSymbolTableRecord
100
AcDbLayerTableRecord
2
0
70
0
6
CONTINUOUS
0
ENDTAB
0
TABLE
2
STYLE
5
3
100
AcDbSymbolTable
70
1
0
STYLE
5
11
100
AcDbSymbolTableRecord
100
AcDbTextStyleTableRecord
2
STANDARD
70
0
0
ENDTAB
0
TABLE
2
VIEW
5
6
100
AcDbSymbolTable
70
0
0
ENDTAB
0
TABLE
2
UCS
5
7
100
AcDbSymbolTable
70
0
0
ENDTAB
0
TABLE
2
APPID
5
9
100
AcDbSymbolTable
70
2
0
APPID
5
12
100
AcDbSymbolTableRecord
100
AcDbRegAppTableRecord
2
ACAD
70
0
0
ENDTAB
0
TABLE
2
DIMSTYLE
5
A
100
AcDbSymbolTable
70
1
0
ENDTAB
0
TABLE
2
BLOCK_RECORD
5
1
100
AcDbSymbolTable
70
1
0
BLOCK_RECORD
5
1F
100
AcDbSymbolTableRecord
100
AcDbBlockTableRecord
2
*MODEL_SPACE
0
BLOCK_RECORD
5
1B
100
AcDbSymbolTableRecord
100
AcDbBlockTableRecord
2
*PAPER_SPACE
0
ENDTAB
0
ENDSEC
0
SECTION
2
BLOCKS
0
BLOCK
5
20
100
AcDbEntity
100
AcDbBlockBegin
2
*MODEL_SPACE
0
ENDBLK
5
21
100
AcDbEntity
100
AcDbBlockEnd
0
BLOCK
5
1C
100
AcDbEntity
100
AcDbBlockBegin
2
*PAPER_SPACE
0
ENDBLK
5
1D
100
AcDbEntity
100
AcDbBlockEnd
0
ENDSEC
0
SECTION
2
ENTITIES
0
LWPOLYLINE
5
100
100
AcDbEntity
8
0
100
AcDbPolyline
90
64
70
1
43
0.0
10
340.14213562372896
20
0
10
340.14213562372896
20
-7.0000000000000018
10
348.1421356237289
20
-7.0000000000000018
10
348.1421356237289
20
-21.999999999999996
10
340.14213562372896
20
-21.999999999999996
10
340.14213562372896
20
-36.999999999999993
10
348.1421356237289
20
-36.999999999999993
10
348.1421356237289
20
-52
10
340.14213562372896
20
-52
10
340.14213562372896
20
-67
10
8
20
-67
10
8
20
-52
10
0
20
-52
10
0
20
-36.999999999999993
10
8
20
-36.999999999999993
10
8
20
-21.999999999999996
10
0
20
-21.999999999999996
10
0
20
-7.0000000000000018
10
8
20
-7.0000000000000018
10
8
20
1.1102230246251565e-15
10
21.928511301977899
20
0
10
21.92851130197792
20
8
10
36.92851130197792
20
8
10
36.92851130197792
20
0
10
50.857022603955819
20
7.7715611723760958e-15
10
50.857022603955819
20
8
10
65.857022603955812
20
8.000000000000032
10
65.857022603955812
20
7.7715611723760989e-15
10
79.785533905933733
20
7.7715611723760958e-15
10
79.785533905933704
20
8.000000000000032
10
94.785533905933704
20
8.0000000000000462
10
94.785533905933704
20
7.7715611723760989e-15
10
108.7140452079116
20
1.5543122344752192e-14
10
108.7140452079116
20
8.0000000000000462
10
123.7140452079116
20
8.0000000000000497
10
123.7140452079116
20
1.5186866324037995e-14
10
137.64255650988952
20
1.5543122344752192e-14
10
137.64255650988952
20
8.0000000000000497
10
152.64255650988952
20
8.0000000000000497
10
152.64255650988952
20
1.5186866324037995e-14
10
166.57106781186741
20
1.4432899320127035e-14
10
166.57106781186738
20
8.0000000000000497
10
181.57106781186738
20
8.0000000000000533
10
181.57106781186738
20
1.4428051431185179e-14
10
195.49957911384527
20
1.3322676295501878e-14
10
195.4995791138395
20
8.0000000000000533
10
210.4995791138395
20
8.0000000000000888
10
210.4995791138395
20
1.3799544339548404e-14
10
224.42809041581739
20
-2.886579864025407e-14
10
224.42809041581737
20
8.0000000000000888
10
239.42809041581737
20
8.0000000000001332
10
239.42809041581737
20
-2.8384082707261447e-14
10
253.35660171779523
20
1.1102230246251565e-15
10
253.35660171779523
20
8.0000000000001332
10
268.35660171779523
20
8.000000000000151
10
268.35660171779523
20
1.5919389576177795e-15
10
282.28511301977312
20
8.8817841970012523e-15
10
282.28511301977312
20
8.000000000000151
10
297.28511301977312
20
8.0000000000001528
10
297.28511301977312
20
9.3586522410520063e-15
10
311.21362432175101
20
8.8817841970012523e-15
10
311.21362432175101
20
8.0000000000001528
10
326.21362432175101
20
8.0000000000001652
10
326.21362432175101
20
0
0
ENDSEC
0
SECTION
2
OBJECTS
0
DICTIONARY
5
C
100
AcDbDictionary
3
ACAD_GROUP
350
D
3
ACAD_MLINESTYLE
350
17
0
DICTIONARY
5
D
100
AcDbDictionary
0
DICTIONARY
5
1A
330
C
100
AcDbDictionary
0
DICTIONARY
5
17
100
AcDbDictionary
0
ENDSEC
0
EOF
