0
SECTION
2
HEADER
9
$INSUNITS
70
4
9
$ACADVER
1
AC1014
9
$HANDSEED
5
FFFF
0
ENDSEC
0
SECTION
2
TABLES
0
TABLE
2
VPORT
5
8
100
AcDbSymbolTable
0
ENDTAB
0
TABLE
2
LTYPE
5
5
100
AcDbSymbolTable
0
LTYPE
5
14
100
AcDbSymbolTableRecord
100
AcDbLinetypeTableRecord
2
BYBLOCK
70
0
0
LTYPE
5
15
100
AcDbSymbolTableRecord
100
AcDbLinetypeTableRecord
2
BYLAYER
70
0
0
ENDTAB
0
TABLE
2
LAYER
5
2
100
AcDbSymbolTable
70
2
0
LAYER
5
50
100
AcDbSymbolTableRecord
100
AcDbLayerTableRecord
2
0
70
0
6
CONTINUOUS
0
ENDTAB
0
TABLE
2
STYLE
5
3
100
AcDbSymbolTable
70
1
0
STYLE
5
11
100
AcDbSymbolTableRecord
100
AcDbTextStyleTableRecord
2
STANDARD
70
0
0
ENDTAB
0
TABLE
2
VIEW
5
6
100
AcDbSymbolTable
70
0
0
ENDTAB
0
TABLE
2
UCS
5
7
100
AcDbSymbolTable
70
0
0
ENDTAB
0
TABLE
2
APPID
5
9
100
AcDbSymbolTable
70
2
0
APPID
5
12
100
AcDbSymbolTableRecord
100
AcDbRegAppTableRecord
2
ACAD
70
0
0
ENDTAB
0
TABLE
2
DIMSTYLE
5
A
100
AcDbSymbolTable
70
1
0
ENDTAB
0
TABLE
2
BLOCK_RECORD
5
1
100
AcDbSymbolTable
70
1
0
BLOCK_RECORD
5
1F
100
AcDbSymbolTableRecord
100
AcDbBlockTableRecord
2
*MODEL_SPACE
0
BLOCK_RECORD
5
1B
100
AcDbSymbolTableRecord
100
AcDbBlockTableRecord
2
*PAPER_SPACE
0
ENDTAB
0
ENDSEC
0
SECTION
2
BLOCKS
0
BLOCK
5
20
100
AcDbEntity
100
AcDbBlockBegin
2
*MODEL_SPACE
0
ENDBLK
5
21
100
AcDbEntity
100
AcDbBlockEnd
0
BLOCK
5
1C
100
AcDbEntity
100
AcDbBlockBegin
2
*PAPER_SPACE
0
ENDBLK
5
1D
100
AcDbEntity
100
AcDbBlockEnd
0
ENDSEC
0
SECTION
2
ENTITIES
0
LWPOLYLINE
5
100
100
AcDbEntity
8
0
100
AcDbPolyline
90
40
70
1
43
0.0
10
166.28427124746423
20
-21.999999999999922
10
174.28427124746423
20
-21.999999999999918
10
174.28427124746423
20
-36.999999999999929
10
166.28427124746426
20
-36.999999999999922
10
166.28427124746426
20
-51.999999999999922
10
174.28427124746429
20
-51.999999999999957
10
174.28427124746423
20
-66.999999999999915
10
3.5981737147334906e-14
20
-67
10
2.7755575615628914e-14
20
-52
10
8.0000000000000284
20
-51.999999999999993
10
8.0000000000000213
20
-37
10
2.158904224604929e-14
20
-36.999999999999993
10
1.4432899320127035e-14
20
-21.999999999999996
10
8.0000000000000142
20
-21.999999999999996
10
8.0000000000000071
20
-6.9999999999999964
10
7.196347344763688e-15
20
-7.0000000000000018
10
0
20
8
10
15
20
8.0000000000000036
10
15.000000000000004
20
8.3065704752680276e-15
10
31.856854249492844
20
1.5543122344752192e-14
10
31.856854249492841
20
7.999999999999976
10
46.856854249492841
20
7.9999999999999893
10
46.856854249492841
20
1.6928765118439572e-14
10
63.713708498985696
20
3.1086244689504383e-14
10
63.713708498985682
20
7.9999999999999982
10
78.713708498985682
20
8.0000000000000089
10
78.713708498985667
20
3.6653190007862665e-14
10
95.570562748478508
20
4.5519144009631418e-14
10
95.570562748478508
20
8.0000000000000178
10
110.57056274847851
20
8.0000000000000426
10
110.57056274847851
20
6.0818506995786407e-14
10
127.42741699797136
20
6.106226635438361e-14
10
127.42741699797136
20
8.0000000000000515
10
142.42741699797136
20
8.0000000000000693
10
142.42741699797136
20
6.8330478614332788e-14
10
159.2842712474642
20
7.6605388699135801e-14
10
159.2842712474642
20
8.0000000000000764
10
174.2842712474642
20
8.0000000000000835
10
174.28427124746423
20
-6.999999999999921
10
166.28427124746423
20
-6.9999999999999201
0
ENDSEC
0
SECTION
2
OBJECTS
0
DICTIONARY
5
C
100
AcDbDictionary
3
ACAD_GROUP
350
D
3
ACAD_MLINESTYLE
350
17
0
DICTIONARY
5
D
100
AcDbDictionary
0
DICTIONARY
5
1A
330
C
100
AcDbDictionary
0
DICTIONARY
5
17
100
AcDbDictionary
0
ENDSEC
0
EOF
